# xmcd
#
# Track frame offsets:
#	150
#	9331
#	23475
#	39271
#	52201
#	62653
#	72331
#	81653
#	89919
#	102589
#	112108
#	121928
#
# Disc length: 1792 seconds
#
# Revision: 0
# Processed by: cddbd v1.4PL0 Copyright (c) Steve Scherf et al.
# Submitted via: audiograbber 1.80
#
DISCID=a706fe0c
DTITLE=Bee Gees - In The Beginning CD3
DYEAR=1900
DGENRE=
TTITLE0=Second Hand People
TTITLE1=Born A Man
TTITLE2=I Was A Lover, A Leader Of Men
TTITLE3=Wine And Women
TTITLE4=Peace Of Mind
TTITLE5=To Be Or Not To Be
TTITLE6=The Battle Of The Blue And Grey
TTITLE7=Theme From Jaimie McPheeters
TTITLE8=Terrible Way To Treat Your Baby
TTITLE9=Well I Am Telling You Now
TTITLE10=Where Are You
TTITLE11=Guess I Don't Know Why I Bother With Myself
EXTD=
EXTT0=
EXTT1=
EXTT2=
EXTT3=
EXTT4=
EXTT5=
EXTT6=
EXTT7=
EXTT8=
EXTT9=
EXTT10=
EXTT11=
PLAYORDER=
